<?xml version="1.0" encoding="UTF-8" standalone="no"?>
<!-- Created with Inkscape (http://www.inkscape.org/) -->
<svg xmlns:svg="http://www.w3.org/2000/svg" xmlns="http://www.w3.org/2000/svg" xmlns:inkscape="http://www.inkscape.org/namespaces/inkscape" xmlns:sodipodi="http://sodipodi.sourceforge.net/DTD/sodipodi-0.dtd" xmlns:ns1="http://sozi.baierouge.fr" xmlns:xlink="http://www.w3.org/1999/xlink" xmlns:dc="http://purl.org/dc/elements/1.1/" xmlns:cc="http://web.resource.org/cc/" version="1.0" width="239.8494" height="253.91829" id="svg4636" inkscape:version="0.91 r13725" xmlns:rdf="http://www.w3.org/1999/02/22-rdf-syntax-ns#">
  <defs id="defs4638"/>
  <g transform="translate(-363.64674,-289.68876)" id="layer1">
    <g transform="matrix(9.2269923,0,0,9.683189,451.44981,459.75166)" id="g4625">
      <path d="M -6.0518748,0.40072988 L -8.943441,8.1718139 L -1.1096175,5.2342569 L 0.57463083,3.2320549 L -4.4253688,-1.2257761 L -6.0518748,0.40072988 z" id="path4094" style="fill:#dab881;fill-opacity:0.99607843;fill-rule:evenodd;stroke:#000000;stroke-width:1px;stroke-linecap:round;stroke-linejoin:round;stroke-opacity:1"/>
      <path d="M -7.4850007,6.646236 L -2.373293,2.3630742 C -1.8209289,3.0043782 -1.4792122,3.7580275 -1.277927,4.6099788 L -1.376229,4.7784966 L -7.3445692,7.0534875 L -7.4850007,6.646236 z" id="path4619" style="fill:#c4a676;fill-opacity:0.99607843;fill-rule:evenodd;stroke:none;stroke-width:1px;stroke-linecap:butt;stroke-linejoin:miter;stroke-opacity:1"/>
      <path d="M -5.5699471,-0.081198122 L 7.3818598,-12.912523 C 9.8588604,-12.690121 13.137207,-10.750794 12.084949,-7.8295454 L -0.75067017,4.6778379 C -1.3129192,1.9669949 -3.2004693,0.58145288 -5.5699471,-0.081198122 z" id="path4092" style="fill:#797979;fill-opacity:0.99607843;fill-rule:evenodd;stroke:#000000;stroke-width:1px;stroke-linecap:round;stroke-linejoin:round;stroke-opacity:1"/>
      <path d="M 7.5023418,-13.033005 L 9.8517398,-15.442644 C 11.931453,-14.182224 13.423977,-12.106142 14.534874,-10.361314 L 12.191048,-7.9794646 C 11.602559,-10.782391 9.6132563,-12.444516 7.5023418,-13.033005 z" id="path4098" style="fill:#d4d5d5;fill-opacity:0.99607843;fill-rule:evenodd;stroke:#000000;stroke-width:1px;stroke-linecap:round;stroke-linejoin:round;stroke-opacity:1"/>
      <path d="M 9.4300528,-14.900475 C 11.657129,-14.579831 13.974275,-12.130741 14.402121,-10.21847 C 14.402121,-10.21847 15.950759,-12.115193 15.965439,-12.703401 C 16.014857,-14.683577 13.695584,-17.114844 11.715211,-17.074111 C 11.177997,-17.063061 9.4300528,-14.900475 9.4300528,-14.900475 z" id="path4100" style="fill:#ee8e8b;fill-opacity:1;fill-rule:evenodd;stroke:#000000;stroke-width:1px;stroke-linecap:round;stroke-linejoin:round;stroke-opacity:1"/>
      <path d="M -9.003682,7.9308499 L -7.5144068,6.8607629" id="path4102" style="fill:none;fill-rule:evenodd;stroke:#000000;stroke-width:1px;stroke-linecap:round;stroke-linejoin:round;stroke-opacity:1"/>
      <path d="M -1.78369,1.5030663 C -1.4747041,1.6154248 -0.87077861,2.8654151 -0.87077861,2.8654151 L -0.44943412,3.8485522 L 11.292032,-7.6962867 L 11.657197,-8.1457209 C 11.657197,-8.1457209 11.424707,-9.0306997 11.292032,-9.3254854 C 11.159357,-9.6202711 10.758918,-10.056405 10.758918,-10.056405 L -1.78369,1.5030663 z" id="path4615" style="fill:#807575;fill-opacity:1;fill-rule:evenodd;stroke:none;stroke-width:1px;stroke-linecap:butt;stroke-linejoin:miter;stroke-opacity:1"/>
      <path d="M 11.695872,-10.52848 L 12.172444,-9.6746216 L 12.430587,-8.900192 L 13.88016,-10.409337 L 13.562446,-10.925623 L 12.927016,-11.819196 L 11.695872,-10.52848 z" id="path4621" style="fill:#c6c8c8;fill-opacity:0.99607843;fill-rule:evenodd;stroke:none;stroke-width:1px;stroke-linecap:butt;stroke-linejoin:miter;stroke-opacity:1"/>
      <path d="M 13.661732,-12.77234 L 14.158161,-12.037625 L 14.575161,-11.243338 L 15.42902,-12.553911 C 15.548163,-13.017245 15.270163,-13.917437 14.952448,-14.321199 L 13.661732,-12.77234 z" id="path4623" style="fill:#ed7f7b;fill-opacity:1;fill-rule:evenodd;stroke:none;stroke-width:1px;stroke-linecap:butt;stroke-linejoin:miter;stroke-opacity:1"/>
    </g>
  </g>
</svg>
